<svg width="219" height="44" viewBox="0 0 219 44" fill="none" xmlns="http://www.w3.org/2000/svg">
<path d="M81.1591 26.3587C81.1591 26.8606 81.2428 27.332 81.4101 27.7731C81.5926 28.1989 81.8359 28.5639 82.1401 28.8681C82.4443 29.1723 82.8093 29.4156 83.2351 29.5981C83.661 29.7654 84.1324 29.8491 84.6495 29.8491H93.3413V27.5221H84.6495C84.3454 27.5221 84.0473 27.4955 83.8039 27.2826C83.641 27.14 83.4861 26.9499 83.4861 26.6552C83.4861 26.3606 83.4861 16.2068 83.4861 16.2068H81.1591V26.3587ZM91.311 13.8799C91.752 13.8799 92.1627 13.9711 92.5429 14.1536C92.9383 14.3209 93.2805 14.5567 93.5695 14.8608C93.8584 15.165 94.0866 15.5376 94.2539 15.9787C94.4212 16.4045 94.5048 16.8684 94.5048 17.3703V18.8075C94.5048 19.3855 94.3603 19.9406 94.0714 20.4729C93.7824 21.0052 93.3489 21.4234 92.771 21.7276L85.2199 25.7883V23.1648L91.6075 19.6972C91.7885 19.5832 91.9311 19.4881 92.0737 19.298C92.1688 19.1554 92.1779 18.9596 92.1779 18.8075V17.3703C92.1779 17.0661 92.163 16.7695 92.0262 16.5414C91.8893 16.2981 91.6151 16.2068 91.311 16.2068H83.4861C83.4861 14.9217 84.5279 13.8799 85.813 13.8799H91.311Z" fill="white"/>
<path d="M200.246 18.4861H202.573C202.573 17.201 203.615 16.1592 204.9 16.1592H207.273C207.714 16.1592 208.139 16.2504 208.55 16.4329C208.961 16.6002 209.333 16.836 209.668 17.1401C210.003 17.4443 210.269 17.8169 210.466 18.258C210.664 18.6838 210.763 19.1477 210.763 19.6496V22.2503L208.436 21.0868V19.6496C208.436 19.007 207.915 18.4861 207.273 18.4861H202.573C202.604 19.6869 203.294 20.7727 204.368 21.311L209.659 23.9631C210.336 24.3023 210.763 24.9942 210.763 25.7511V26.6532C210.763 27.0791 210.664 27.4897 210.466 27.8851C210.269 28.2653 210.003 28.6075 209.668 28.9117C209.333 29.2007 208.961 29.4288 208.55 29.5961C208.139 29.7634 207.714 29.8471 207.273 29.8471H203.44C203.014 29.8471 202.603 29.7634 202.208 29.5961C201.828 29.4288 201.486 29.2007 201.181 28.9117C200.892 28.6075 200.664 28.2653 200.497 27.8851C200.33 27.4897 200.246 27.0791 200.246 26.6532V24.4936L202.573 25.657V26.6532C202.573 27.132 202.961 27.5201 203.44 27.5201H207.273C207.357 27.5201 207.46 27.5201 207.569 27.5201C208.048 27.5201 208.436 27.132 208.436 26.6532V25.7863L203.093 23.1026C201.348 22.2258 200.246 20.4395 200.246 18.4861Z" fill="white"/>
<path d="M118.784 26.3589C118.784 26.8608 118.868 27.3323 119.035 27.7733C119.218 28.1992 119.461 28.5642 119.765 28.8683C120.07 29.1725 120.435 29.4159 120.86 29.5984C121.286 29.7657 121.758 29.8493 122.275 29.8493H130.111V27.5224H122.275C121.971 27.5224 121.673 27.4958 121.429 27.2828C121.266 27.1403 121.111 26.9501 121.111 26.6555C121.111 26.3608 121.111 19.2488 121.111 19.2488H118.784V26.3589ZM128.081 16.9219C128.918 16.9219 129.535 17.1238 130.111 17.7298C131.049 18.8425 130.835 20.963 129.43 21.7697C127.241 23.0271 125.047 24.1941 122.845 25.4293V23.0529L128.081 20.2013C128.67 19.8686 128.556 19.2488 128.081 19.2488H121.111C121.111 17.9637 122.153 16.9219 123.438 16.9219H128.081Z" fill="white"/>
<path d="M186.757 16.7314V19.1035H181.544C180.998 19.1035 180.706 19.356 180.663 19.8594V29.8711H178.286V16.8486H179.997L180.34 17.8662C180.39 17.8063 180.441 17.7462 180.494 17.6895C180.799 17.4005 181.149 17.1649 181.544 16.9824C181.94 16.8151 182.358 16.7314 182.799 16.7314H186.757Z" fill="white"/>
<path d="M191.355 13.8799V22.1496L195.825 16.684C197.156 16.684 197.773 16.684 198.581 16.684L194.447 22.0071L198.686 29.8491H196.062L192.783 23.6705C192.296 24.215 191.785 24.8112 191.355 25.334C191.355 25.7617 191.355 25.949 191.355 26.5222C191.355 27.6628 191.355 29.8491 191.355 29.8491H189.028V13.8799H191.355Z" fill="white"/>
<path d="M167.958 29.8493C167.517 29.8493 167.099 29.7657 166.703 29.5984C166.308 29.4159 165.958 29.1801 165.654 28.8912C165.365 28.587 165.129 28.2372 164.947 27.8418C164.779 27.4463 164.696 27.0281 164.696 26.587V19.2944H167.068C167.068 17.9841 168.084 16.9219 169.394 16.9219C169.425 16.9219 169.455 16.9219 169.487 16.9219C172.519 16.9219 169.561 16.9219 171.905 16.9219C174.249 16.9219 175.441 18.3002 175.441 20.1842V26.587C175.441 27.0281 175.342 27.4463 175.144 27.8418C174.947 28.2372 174.68 28.587 174.346 28.8912C174.011 29.1801 173.631 29.4159 173.205 29.5984C172.779 29.7657 172.346 29.8493 171.905 29.8493H167.958ZM167.068 26.587C167.068 27.1802 167.365 27.4767 167.958 27.4767H171.905C172.46 27.4767 173.091 27.2828 173.091 26.587V20.1842C173.091 19.3458 172.446 19.2944 171.905 19.2944H167.068V26.587Z" fill="white"/>
<path d="M146.908 27.2486L145.019 16.8496H147.346L149.235 26.6555C149.373 27.1879 149.79 27.5224 150.398 27.5224H151.562C152.129 27.5224 152.414 27.283 152.429 26.3817V16.8496H154.733V26.3817C154.733 27.1879 155.302 27.5224 155.896 27.5224H159.09V16.8496H161.394V27.5224H159.09V29.8493H155.896C155.455 29.8493 155.029 29.7808 154.619 29.644C154.223 29.4919 153.873 29.2714 153.569 28.9824C153.28 29.2714 152.946 29.4919 152.566 29.644C152.185 29.7808 151.851 29.8493 151.562 29.8493H150.398C149.972 29.8493 149.562 29.7808 149.166 29.644C148.771 29.5071 148.421 29.3246 148.117 29.0965C147.813 28.8531 147.554 28.5794 147.341 28.2752C147.128 27.9558 146.984 27.6136 146.908 27.2486Z" fill="white"/>
<path d="M138.473 17.207H141.881V19.4883H138.473V26.5869C138.473 27.18 138.77 27.4766 139.363 27.4766H142.371V29.8486H139.363C138.922 29.8486 138.503 29.765 138.108 29.5977C137.713 29.4152 137.363 29.1795 137.059 28.8906C136.77 28.5865 136.534 28.2372 136.351 27.8418C136.184 27.4464 136.1 27.0279 136.1 26.5869V19.4883H134.278V17.207H136.1V14.165H138.473V17.207Z" fill="white"/>
<path d="M101.295 29.8491L103.895 16.7772C104.213 15.5909 104.538 15.1156 105.101 14.5833C105.679 14.051 106.504 13.8799 107.386 13.8799H112.61V16.2068H114.937V29.8491H112.61V16.2068H107.386C106.542 16.2068 106.304 16.7315 106.222 17.0737L103.895 29.8491H101.295Z" fill="white"/>
<path d="M66.1558 29.8491V16.2068H68.4828C68.4828 14.9217 69.5246 13.8799 70.8097 13.8799H77.1746V16.2068H68.4828V21.431H77.1746V23.758H68.4828V29.8491H66.1558Z" fill="white"/>
<path d="M61.5974 14.165V29.8719H59.2476V14.165H61.5974Z" fill="white"/>
<path d="M55.2646 29.8491H48.1697C47.7287 29.8491 47.3105 29.7654 46.915 29.5981C46.5196 29.4156 46.1698 29.1799 45.8656 28.8909C45.5767 28.5867 45.3409 28.2369 45.1584 27.8415C44.9911 27.4461 44.9075 27.0278 44.9075 26.5868V14.165H47.28V26.5868C47.28 27.1799 47.5766 27.4765 48.1697 27.4765H55.2646V29.8491Z" fill="white"/>
<path d="M21.2156 5.63281C30.2547 5.63305 37.5828 12.9608 37.5828 22C37.5828 31.0392 30.2547 38.3669 21.2156 38.3672C12.1762 38.3672 4.84839 31.0394 4.84839 22C4.8484 12.9607 12.1762 5.63281 21.2156 5.63281ZM14.8494 26.9033C14.8494 27.3443 14.9331 27.7629 15.1003 28.1582C15.2828 28.5535 15.5185 28.9039 15.8074 29.208C16.1113 29.4967 16.4611 29.7327 16.8562 29.915C17.2514 30.0822 17.6703 30.166 18.1111 30.166H26.4617L24.0876 27.793H18.1111C17.5182 27.7929 17.2215 27.4962 17.2214 26.9033V17.5898L14.8494 15.2178V26.9033ZM15.8679 13.8164L18.241 16.1895H24.2273C24.8202 16.1896 25.1169 16.4861 25.1169 17.0791V26.4014L27.49 28.7744V17.0791C27.49 16.6382 27.4062 16.2195 27.239 15.8242C27.0566 15.4289 26.8198 15.0785 26.531 14.7744C26.227 14.4858 25.8772 14.2498 25.4822 14.0674C25.0869 13.9002 24.6682 13.8165 24.2273 13.8164H15.8679Z" fill="white"/>
</svg>
